<?xml version="1.0" encoding="utf-8"?>
<!-- Generator: Adobe Illustrator 22.0.1, SVG Export Plug-In . SVG Version: 6.00 Build 0)  -->
<svg version="1.1" id="Layer_1" xmlns="http://www.w3.org/2000/svg" xmlns:xlink="http://www.w3.org/1999/xlink" x="0px" y="0px"
	 viewBox="0 0 95.5 31" style="enable-background:new 0 0 95.5 31;" xml:space="preserve">
<style type="text/css">
	.st0{fill:#5F666B;}
</style>
<g>
	<g>
		<path class="st0" d="M1.2,0c0.5,0,0.9,0.1,1.2,0.4s0.4,0.7,0.4,1.2c0,0.3,0,0.6-0.1,0.8C2.7,2.6,2.6,2.8,2.5,2.9
			C2.3,3.1,2.2,3.2,1.9,3.3C1.7,3.4,1.5,3.4,1.2,3.4H0.1V0H1.2z M1.2,3c0.1,0,0.1,0,0.2,0C1.5,3,1.6,3,1.7,3c0.1,0,0.2-0.1,0.3-0.1
			C2,2.8,2.1,2.7,2.2,2.6c0.1-0.1,0.1-0.2,0.2-0.4c0-0.1,0.1-0.3,0.1-0.6c0-0.2,0-0.4-0.1-0.6c0-0.2-0.1-0.3-0.2-0.4
			C2,0.6,1.9,0.5,1.8,0.5S1.5,0.4,1.3,0.4H0.5V3L1.2,3z"/>
		<path class="st0" d="M5.1,3.3C4.9,3.4,4.7,3.5,4.4,3.5c-0.2,0-0.4,0-0.5-0.1C3.7,3.3,3.6,3.2,3.5,3.1C3.4,3,3.3,2.8,3.2,2.7
			c0-0.2,0-0.3,0-0.5s0-0.3,0.1-0.5c0.1-0.1,0.1-0.3,0.2-0.4C3.6,1.1,3.8,1,3.9,1C4,0.9,4.2,0.9,4.4,0.9c0.2,0,0.4,0.1,0.6,0.1
			s0.3,0.2,0.3,0.3s0.1,0.3,0.2,0.5s0.1,0.3,0,0.5H3.6c0,0.1,0,0.2,0,0.3c0,0.1,0.1,0.2,0.1,0.3C3.8,3,3.9,3,4,3.1
			c0.1,0.1,0.2,0.1,0.3,0.1c0.2,0,0.3,0,0.4-0.1C4.9,2.9,5,2.8,5,2.6h0.4C5.4,2.9,5.3,3.1,5.1,3.3z M5,1.7c0-0.1-0.1-0.1-0.1-0.2
			C4.8,1.4,4.7,1.3,4.6,1.3c-0.1,0-0.2-0.1-0.3-0.1c-0.1,0-0.2,0-0.3,0.1c-0.1,0-0.1,0.1-0.2,0.1C3.8,1.5,3.7,1.6,3.7,1.7
			S3.6,1.9,3.6,1.9H5C5,1.8,5,1.7,5,1.7z"/>
		<path class="st0" d="M6.6,3.4L5.6,0.9h0.5L6.8,3l0,0l0.7-2.1h0.4L7,3.4L6.6,3.4z"/>
		<path class="st0" d="M10,3.3C9.9,3.4,9.6,3.5,9.3,3.5c-0.2,0-0.4,0-0.5-0.1C8.7,3.3,8.5,3.2,8.4,3.1C8.3,3,8.3,2.8,8.2,2.7
			c0-0.2-0.1-0.3-0.1-0.5s0-0.3,0.1-0.5c0.1-0.1,0.1-0.3,0.2-0.4C8.6,1.1,8.7,1,8.8,1C9,0.9,9.1,0.9,9.3,0.9c0.2,0,0.4,0.1,0.6,0.1
			c0.1,0.1,0.3,0.2,0.3,0.3c0.1,0.1,0.1,0.3,0.2,0.5s0.1,0.3,0,0.5H8.5c0,0.1,0,0.2,0,0.3c0,0.1,0.1,0.2,0.1,0.3C8.8,3,8.9,3,9,3.1
			C9,3.1,9.2,3.1,9.3,3.1c0.2,0,0.3,0,0.4-0.1C9.9,2.9,9.9,2.8,10,2.6h0.4C10.3,2.9,10.2,3.1,10,3.3z M9.9,1.7
			c0-0.1-0.1-0.1-0.1-0.2C9.7,1.4,9.6,1.3,9.5,1.3c-0.1,0-0.2-0.1-0.3-0.1S9,1.3,9,1.3c-0.1,0-0.1,0.1-0.2,0.1
			C8.7,1.5,8.6,1.6,8.6,1.7S8.5,1.9,8.5,1.9H10C10,1.8,10,1.7,9.9,1.7z"/>
		<path class="st0" d="M11.3,0v3.4h-0.4V0H11.3z"/>
		<path class="st0" d="M11.8,1.7c0.1-0.1,0.1-0.3,0.2-0.4C12.2,1.1,12.3,1,12.4,1c0.1-0.1,0.3-0.1,0.5-0.1c0.2,0,0.4,0,0.5,0.1
			c0.1,0.1,0.3,0.1,0.4,0.3C14,1.3,14,1.5,14.1,1.6s0.1,0.3,0.1,0.5c0,0.2,0,0.3-0.1,0.5S14,2.9,13.9,3.1c-0.1,0.1-0.2,0.2-0.4,0.3
			c-0.1,0.1-0.3,0.1-0.5,0.1c-0.2,0-0.4,0-0.5-0.1c-0.1-0.1-0.3-0.1-0.4-0.3c-0.1-0.1-0.2-0.3-0.2-0.4s-0.1-0.3-0.1-0.5
			C11.8,2,11.8,1.8,11.8,1.7z M12.3,2.6c0,0.1,0.1,0.2,0.2,0.3C12.5,3,12.6,3,12.7,3.1c0.1,0,0.2,0.1,0.3,0.1c0.1,0,0.2,0,0.3-0.1
			c0.1,0,0.2-0.1,0.2-0.2c0.1-0.1,0.1-0.2,0.2-0.3c0-0.1,0.1-0.3,0.1-0.4s0-0.3-0.1-0.4c0-0.1-0.1-0.2-0.2-0.3
			c-0.1-0.1-0.1-0.1-0.2-0.2c-0.1,0-0.2-0.1-0.3-0.1c-0.1,0-0.2,0-0.3,0.1c-0.1,0-0.2,0.1-0.2,0.2c-0.1,0.1-0.1,0.2-0.2,0.3
			c-0.1,0.1-0.1,0.3-0.1,0.4S12.2,2.5,12.3,2.6z"/>
		<path class="st0" d="M15.1,0.9v0.3l0,0C15.1,1.1,15.2,1,15.4,1c0.1-0.1,0.3-0.1,0.5-0.1c0.2,0,0.3,0,0.5,0.1
			c0.1,0.1,0.3,0.2,0.3,0.3c0.1,0.1,0.2,0.3,0.2,0.4C17,1.8,17,2,17,2.2s0,0.3-0.1,0.5c-0.1,0.1-0.1,0.3-0.2,0.4
			c-0.1,0.1-0.2,0.2-0.3,0.3c-0.1,0.1-0.3,0.1-0.5,0.1c-0.1,0-0.1,0-0.2,0c-0.1,0-0.1,0-0.2-0.1c-0.1,0-0.1-0.1-0.2-0.1
			s-0.1-0.1-0.2-0.2l0,0v1.3h-0.4V0.9H15.1z M16.5,1.8c0-0.1-0.1-0.2-0.1-0.3c-0.1-0.1-0.1-0.1-0.2-0.2c-0.1-0.1-0.2-0.1-0.3-0.1
			c-0.1,0-0.3,0-0.3,0.1c-0.1,0.1-0.2,0.1-0.2,0.2c-0.1,0.1-0.1,0.2-0.1,0.3c0,0.1,0,0.2,0,0.3s0,0.2,0,0.3c0,0.1,0.1,0.2,0.1,0.3
			C15.3,2.9,15.4,3,15.4,3c0.1,0.1,0.2,0.1,0.3,0.1c0.1,0,0.3,0,0.3-0.1c0.1-0.1,0.2-0.1,0.2-0.2c0.1-0.1,0.1-0.2,0.1-0.3
			c0.1-0.1,0.1-0.2,0.1-0.3C16.6,2,16.5,1.9,16.5,1.8z"/>
		<path class="st0" d="M19.2,3.3c-0.2,0.1-0.4,0.2-0.7,0.2c-0.2,0-0.4,0-0.5-0.1c-0.1-0.1-0.3-0.1-0.4-0.3c-0.1-0.1-0.2-0.3-0.2-0.4
			c-0.1-0.1-0.1-0.3-0.1-0.5c0-0.2,0-0.3,0.1-0.5c0.1-0.1,0.1-0.3,0.2-0.4C17.7,1.1,17.9,1,18,1c0.1-0.1,0.3-0.1,0.5-0.1
			C18.7,0.9,18.9,1,19,1s0.3,0.2,0.3,0.3c0.1,0.1,0.1,0.3,0.2,0.5c0,0.2,0.1,0.3,0,0.5h-1.9c0,0.1,0,0.2,0,0.3
			c0,0.1,0.1,0.2,0.1,0.3C17.9,3,18,3.1,18.1,3.1c0.1,0.1,0.2,0.1,0.3,0.1c0.2,0,0.3,0,0.4-0.1c0.2-0.1,0.3-0.2,0.3-0.4h0.4
			C19.5,2.9,19.4,3.1,19.2,3.3z M19.1,1.7c0-0.1-0.1-0.2-0.1-0.2c-0.1-0.1-0.1-0.1-0.2-0.1c-0.1,0-0.2-0.1-0.3-0.1
			c-0.1,0-0.2,0-0.3,0.1C18.1,1.3,18,1.4,18,1.5c-0.1,0.1-0.1,0.1-0.1,0.2s-0.1,0.2-0.1,0.3h1.4C19.2,1.8,19.2,1.7,19.1,1.7z"/>
		<path class="st0" d="M21.8,3.4V3.1l0,0c-0.1,0.1-0.2,0.2-0.3,0.3c-0.1,0.1-0.3,0.1-0.5,0.1c-0.2,0-0.3,0-0.5-0.1
			c-0.1-0.1-0.3-0.2-0.3-0.3C20.1,2.9,20,2.8,20,2.6c-0.1-0.1-0.1-0.3-0.1-0.5s0-0.3,0.1-0.5c0.1-0.1,0.1-0.3,0.2-0.4
			C20.3,1.1,20.4,1,20.6,1c0.1,0,0.3-0.1,0.5-0.1c0.1,0,0.1,0,0.2,0c0.1,0,0.1,0,0.2,0.1c0.1,0,0.1,0.1,0.2,0.1
			c0.1,0.1,0.1,0.1,0.2,0.2l0,0V0h0.4v3.4H21.8z M20.4,2.5c0,0.1,0.1,0.2,0.1,0.3C20.6,2.9,20.7,3,20.8,3c0.1,0.1,0.2,0.1,0.3,0.1
			s0.3,0,0.3-0.1s0.2-0.1,0.2-0.2c0.1-0.1,0.1-0.2,0.1-0.3c0-0.1,0-0.2,0-0.3c0-0.1,0-0.2,0-0.3c0-0.1-0.1-0.2-0.1-0.3
			s-0.1-0.1-0.2-0.2c-0.1-0.1-0.2-0.1-0.3-0.1c-0.1,0-0.3,0-0.3,0.1c-0.1,0-0.2,0.1-0.2,0.2s-0.1,0.2-0.1,0.3c0,0.1,0,0.2,0,0.3
			C20.4,2.3,20.4,2.4,20.4,2.5z"/>
		<path class="st0" d="M24.6,0v1.3l0,0C24.7,1.1,24.8,1,25,1c0.1-0.1,0.3-0.1,0.5-0.1c0.2,0,0.3,0,0.5,0.1c0.1,0.1,0.3,0.2,0.3,0.3
			s0.2,0.3,0.2,0.4c0.1,0.1,0.1,0.3,0.1,0.5c0,0.2,0,0.3-0.1,0.5c-0.1,0.1-0.1,0.3-0.2,0.4c-0.1,0.1-0.2,0.2-0.3,0.3
			s-0.3,0.1-0.5,0.1c-0.1,0-0.1,0-0.2,0c-0.1,0-0.1,0-0.2-0.1c-0.1,0-0.1-0.1-0.2-0.1c-0.1-0.1-0.1-0.1-0.2-0.2l0,0v0.3h-0.4V0H24.6
			z M26.1,1.8c0-0.1-0.1-0.2-0.1-0.3s-0.1-0.1-0.2-0.2c-0.1-0.1-0.2-0.1-0.3-0.1s-0.3,0-0.3,0.1c-0.1,0.1-0.2,0.1-0.2,0.2
			c-0.1,0.1-0.1,0.2-0.1,0.3c0,0.1,0,0.2,0,0.3s0,0.2,0,0.3c0,0.1,0.1,0.2,0.1,0.3C24.8,2.9,24.9,3,25,3c0.1,0.1,0.2,0.1,0.3,0.1
			c0.1,0,0.3,0,0.3-0.1c0.1-0.1,0.2-0.1,0.2-0.2C26,2.7,26,2.6,26.1,2.5c0-0.1,0-0.2,0-0.3C26.1,2,26.1,1.9,26.1,1.8z"/>
		<path class="st0" d="M28,3.8c-0.1,0.1-0.1,0.2-0.1,0.3c-0.1,0.1-0.1,0.1-0.1,0.2s-0.1,0.1-0.2,0.1c-0.1,0-0.1,0-0.2,0
			c-0.1,0-0.1,0-0.1,0s-0.1,0-0.1,0V4c0,0,0.1,0,0.1,0c0.1,0,0.1,0,0.1,0c0.1,0,0.1,0,0.2-0.1c0.1,0,0.1-0.1,0.1-0.2l0.2-0.4l-1-2.4
			h0.5l0.7,2l0,0l0.7-2h0.4L28,3.8z"/>
	</g>
	<g>
		<g>
			<g>
				<g>
					<path class="st0" d="M25,10.8h2.3V20c0,1.3,0.6,1.7,1.7,1.7v2.1c-2.6,0.3-4-1.3-4-3.8V10.8z"/>
					<path class="st0" d="M38.8,20.9c-0.5,1.8-2.1,3.1-4.4,3.1c-2.6,0-4.6-2.1-4.6-4.7c0-2.6,2.1-4.8,4.6-4.8c2.2,0,4,1.4,4.4,3.8
						L32.5,21c0.5,0.6,1.1,1,1.9,1c0.8,0,1.5-0.3,1.9-1L38.8,20.9L38.8,20.9z M36.2,17.4c-0.4-0.5-1-0.8-1.8-0.8
						c-1.3,0-2.4,1-2.4,2.6L36.2,17.4z"/>
					<path class="st0" d="M54.2,23.8h-2.3v-5.3c0-0.5-0.2-1.7-1.7-1.7c-1,0-1.7,0.7-1.7,1.7v5.3h-2.3v-5.3c0-0.5-0.1-1.7-1.7-1.7
						c-1,0-1.7,0.7-1.7,1.7v5.3h-2.3v-5.2c0-2.3,1.6-4,4.1-4c1.2,0,2.2,0.5,2.9,1.3c0.7-0.8,1.7-1.3,2.9-1.3c2.5,0,4,1.7,4,4
						L54.2,23.8L54.2,23.8z"/>
					<path class="st0" d="M64.8,19.3c0,2.7-2.1,4.7-4.6,4.7c-2.5,0-4.5-2-4.5-4.7c0-2.7,2-4.8,4.5-4.8
						C62.7,14.5,64.8,16.6,64.8,19.3z M62.5,19.3c0-1.6-1-2.6-2.2-2.6c-1.2,0-2.2,1.1-2.2,2.6c0,1.5,1,2.6,2.2,2.6
						C61.4,21.9,62.5,20.9,62.5,19.3z"/>
					<path class="st0" d="M70.4,14.5c2.5,0,4,1.7,4,4v5.2h-2.3v-5.3c0-0.5-0.2-1.7-1.7-1.7c-1,0-1.7,0.7-1.7,1.7v5.3h-2.3v-5.2
						C66.3,16.3,67.9,14.5,70.4,14.5z"/>
					<path class="st0" d="M85.2,19.3c0,2.6-1.9,4.7-4.6,4.7c-2.7,0-4.7-2.1-4.7-4.7c0-2.6,1.9-4.7,4.3-4.7c1.1,0,1.9,0.3,2.6,1v-4.9
						h2.3V19.3z M80.6,16.7c-1.3,0-2.3,1.1-2.3,2.6c0,1.4,1,2.5,2.3,2.5s2.3-1.1,2.3-2.5C82.9,17.9,81.8,16.7,80.6,16.7z"/>
					<path class="st0" d="M95.5,19.3c0,2.7-2.1,4.7-4.6,4.7c-2.5,0-4.5-2-4.5-4.7c0-2.7,2-4.8,4.5-4.8
						C93.5,14.5,95.5,16.6,95.5,19.3z M93.2,19.3c0-1.6-1-2.6-2.2-2.6c-1.2,0-2.2,1.1-2.2,2.6c0,1.5,1,2.6,2.2,2.6
						C92.2,21.9,93.2,20.9,93.2,19.3z"/>
				</g>
			</g>
			<g>
				<path class="st0" d="M26.9,30.8c-0.5,0-0.9-0.3-1.1-0.6v0.5h-0.5V26h0.6v1.9c0.2-0.3,0.6-0.6,1.1-0.6c0.9,0,1.6,0.8,1.6,1.7
					C28.6,30,27.9,30.8,26.9,30.8z M26.9,27.9c-0.6,0-1.1,0.6-1.1,1.2c0,0.7,0.5,1.2,1.1,1.2c0.6,0,1.1-0.6,1.1-1.2
					C28,28.4,27.5,27.9,26.9,27.9z"/>
				<path class="st0" d="M31.9,30.7h-0.5v-0.3c-0.2,0.3-0.6,0.4-1,0.4c-0.8,0-1.3-0.6-1.3-1.4v-2h0.5v2c0,0.5,0.3,0.9,0.8,0.9
					c0.5,0,0.8-0.3,0.8-0.8v-2h0.6V30.7z"/>
				<path class="st0" d="M34.1,30.8c-0.8,0-1.4-0.4-1.5-1.1h0.6c0.1,0.4,0.4,0.6,0.9,0.6c0.5,0,0.8-0.3,0.8-0.5
					c0-0.2-0.1-0.4-0.9-0.5c-0.8-0.1-1.3-0.3-1.3-0.9c0-0.5,0.4-1,1.3-1c0.8,0,1.3,0.4,1.3,1h-0.6c-0.1-0.3-0.4-0.5-0.8-0.5
					c-0.4,0-0.7,0.2-0.7,0.5c0,0.2,0.2,0.3,0.8,0.4c0.7,0.1,1.3,0.3,1.3,1C35.4,30.4,34.8,30.8,34.1,30.8z"/>
				<path class="st0" d="M36.6,26.9h-0.5v-0.6h0.6L36.6,26.9L36.6,26.9z M36.6,30.7h-0.5v-3.3h0.6L36.6,30.7L36.6,30.7z"/>
				<path class="st0" d="M40.2,30.7h-0.5v-2c0-0.5-0.3-0.9-0.8-0.9c-0.5,0-0.8,0.4-0.8,0.8v2h-0.6v-3.3H38v0.3
					c0.2-0.3,0.6-0.4,1-0.4c0.8,0,1.3,0.6,1.3,1.4L40.2,30.7L40.2,30.7z"/>
				<path class="st0" d="M44.1,29.7c-0.2,0.7-0.8,1.1-1.5,1.1c-0.9,0-1.7-0.8-1.7-1.7c0-0.9,0.7-1.7,1.6-1.7c0.8,0,1.7,0.7,1.7,1.9
					h-2.7c0.1,0.7,0.6,1.1,1.1,1.1c0.5,0,0.8-0.2,1-0.6H44.1z M43.6,28.7c-0.1-0.5-0.6-0.9-1-0.9c-0.4,0-0.9,0.3-1.1,0.9H43.6z"/>
				<path class="st0" d="M46.1,30.8c-0.8,0-1.4-0.4-1.5-1.1h0.6c0.1,0.4,0.4,0.6,0.9,0.6c0.5,0,0.8-0.3,0.8-0.5
					c0-0.2-0.1-0.4-0.9-0.5c-0.8-0.1-1.3-0.3-1.3-0.9c0-0.5,0.4-1,1.3-1c0.8,0,1.3,0.4,1.3,1h-0.6c-0.1-0.3-0.4-0.5-0.8-0.5
					c-0.4,0-0.8,0.2-0.8,0.5c0,0.2,0.2,0.3,0.8,0.4c0.7,0.1,1.3,0.3,1.3,1C47.4,30.4,46.8,30.8,46.1,30.8z"/>
				<path class="st0" d="M49.3,30.8c-0.8,0-1.4-0.4-1.5-1.1h0.6c0.1,0.4,0.4,0.6,0.9,0.6c0.5,0,0.8-0.3,0.8-0.5
					c0-0.2-0.1-0.4-0.9-0.5c-0.8-0.1-1.3-0.3-1.3-0.9c0-0.5,0.4-1,1.3-1c0.8,0,1.3,0.4,1.3,1H50c-0.1-0.3-0.4-0.5-0.8-0.5
					c-0.4,0-0.8,0.2-0.8,0.5c0,0.2,0.2,0.3,0.8,0.4c0.7,0.1,1.3,0.3,1.3,1C50.6,30.4,50,30.8,49.3,30.8z"/>
			</g>
		</g>
		<g>
			<path class="st0" d="M4,25.6c0.1,0,0.1,0,0.2,0h0.1c0,0,0.1,0,0.1,0h0c0,0,0,0,0.1,0h0.1c0,0,0.1,0,0.1,0c0.1,0,0.1,0,0.1,0
				c0,0,0.1,0,0.1,0c0.1,0,0.1,0,0.1,0l0.1,0c0,0,0.1,0,0.1,0c-0.8-1.5-1.3-3.1-1.3-4.7c0-1.3,0.3-2.6,0.8-3.8c0,0-0.1,0-0.1,0h0
				l0,0c-0.3,0-0.5,0-0.7,0.1c-1.9,0.3-4,2.1-4,4.5C0,23.8,2.1,25.6,4,25.6z"/>
			<path class="st0" d="M17.6,14.1c-1.6-1.1-4.7-3-8.3-3.1c-0.6,0-1.2,0-1.7,0.1c-0.4,0.1-0.9,0.2-1.3,0.3h0c-0.1,0-0.2,0.1-0.3,0.1
				l-0.1,0C5.5,11.8,5.2,11.9,5,12c-0.1,0.1-0.2,0.1-0.3,0.2c-0.1,0.1-0.2,0.1-0.3,0.2c-0.1,0.1-0.3,0.2-0.4,0.3h0
				c-0.1,0.1-0.2,0.1-0.3,0.2c-0.1,0.1-0.2,0.1-0.3,0.2c-0.1,0.1-0.3,0.2-0.4,0.4c0,0-0.1,0.1-0.1,0.1l-0.1,0.1
				c-0.2,0.2-0.4,0.4-0.5,0.6l0,0c-0.2,0.2-0.3,0.4-0.5,0.6L1.6,15c-0.1,0.2-0.3,0.3-0.4,0.6c-0.1,0.1-0.1,0.2-0.2,0.3
				C1,15.9,1,16,1,16.1l-0.1,0.1c0,0,0,0,0,0.1c-0.3,0.6-0.6,1.3-0.8,2c0,0,0.1-0.1,0.1-0.1l0.1-0.1c0,0,0.1-0.1,0.1-0.1l0,0l0,0
				c0.1-0.1,0.1-0.1,0.1-0.1c0,0,0,0,0.1-0.1c0,0,0.1-0.1,0.1-0.1l0.1-0.1c0,0,0.1-0.1,0.1-0.1l0-0.1c0.1,0,0.1-0.1,0.1-0.1h0l0,0
				C1.2,17.2,1.3,17,1.4,17c0,0,0,0,0.1,0c0.1,0,0.1-0.1,0.1-0.1c0,0,0.1,0,0.1-0.1c0,0,0.1-0.1,0.1-0.1c0,0,0.1,0,0.1,0L2,16.5
				c0,0,0.1,0,0.1-0.1l0.1,0c0.1-0.1,0.3-0.1,0.4-0.2l0.1,0c0.1,0,0.1,0,0.1-0.1c0,0,0.1,0,0.1,0s0.1,0,0.1,0l0.1,0c0,0,0.1,0,0.1,0
				l0.1,0c0.1,0,0.1,0,0.1,0l0.1,0c0.1,0,0.1,0,0.2,0c0.4-0.1,1-0.1,1.5,0c0.1,0,0.1,0,0.2,0l0.9,0.1l0,0c3.1,0.6,6.8,2.7,7.1,4
				c0.2,1-1.6,2.7-2.2,3.2c-1.3,1.2-2.9,2.2-4.4,2.8v0l-0.7,0.2c0,0,0,0-0.1,0c-0.1,0-0.1,0-0.1,0c-0.7,0.2-1.4,0.3-2,0.3
				c-0.1,0-0.1,0-0.2,0c0,0,0,0-0.1,0c-0.1,0-0.1,0-0.1,0c0,0-0.1,0-0.1,0c0,0-0.1,0-0.1,0l-0.1,0c-0.1,0-0.1,0-0.1,0H3.1
				c-0.1,0-0.1,0-0.2-0.1c0,0,0,0,0,0c-0.1,0-0.1,0-0.2-0.1l-0.1,0c-0.1,0-0.1,0-0.1-0.1l-0.1,0c0,0-0.1,0-0.1-0.1l-0.1,0
				c-0.1,0-0.1,0-0.1,0l-0.1,0c-0.1,0-0.1-0.1-0.2-0.1l0,0c-0.1,0-0.1-0.1-0.2-0.1c0,0,0,0,0,0l-0.1,0c0,0-0.1-0.1-0.1-0.1l-0.1,0
				c0,0-0.1-0.1-0.1-0.1c0,0,0,0-0.1-0.1c0,0-0.1-0.1-0.1-0.1l-0.1-0.1c-0.1,0-0.1-0.1-0.1-0.1l0,0c-0.1-0.1-0.1-0.1-0.2-0.1l0,0
				c-0.1-0.1-0.1-0.1-0.1-0.1c0,0,0,0-0.1-0.1c0,0-0.1-0.1-0.1-0.1l-0.1-0.1c0,0,0-0.1-0.1-0.1c0.3,1.1,0.9,2.2,1.5,3.1
				c1.5,2,3.7,3.1,5.9,3.2c0,0,0.1,0,0.1,0h0c0,0,0.1,0,0.1,0c1.4,0,2.8-0.3,4.2-0.8c3.7-1.4,6.2-4.4,7.3-6.1
				c1.6-2.3,2.4-4.7,2.2-5.5C21.4,17.7,19.9,15.8,17.6,14.1z"/>
		</g>
	</g>
</g>
</svg>
